<mxfile host="app.diagrams.net" modified="2023-06-19T14:58:55.002Z" agent="Mozilla/5.0 (Windows NT 10.0; Win64; x64) AppleWebKit/537.36 (KHTML, like Gecko) Chrome/114.0.0.0 Safari/537.36" version="21.2.9" etag="njYMIzHkoGOqYu0AG2Ww" type="github">
  <diagram name="Page-1" id="MuWYvbIUw9fvgbi-xRJs">
    <mxGraphModel>
      <root>
        <mxCell id="0" />
        <mxCell id="1" parent="0" />
      </root>
    </mxGraphModel>
  </diagram>
</mxfile>
